<svg width="20" height="20" viewBox="0 0 20 20" fill="none" xmlns="http://www.w3.org/2000/svg">
<g clip-path="url(#clip0_1_1110)">
<path d="M19.7879 10.225C19.7879 9.56665 19.7296 8.94165 19.6296 8.33331H10.2129V12.0916H15.6046C15.3629 13.325 14.6546 14.3666 13.6046 15.075V17.575H16.8212C18.7046 15.8333 19.7879 13.2666 19.7879 10.225Z" fill="#4285F4"/>
<path d="M10.2129 20C12.9129 20 15.1712 19.1 16.8212 17.575L13.6046 15.075C12.7046 15.675 11.5629 16.0417 10.2129 16.0417C7.60457 16.0417 5.39624 14.2833 4.60457 11.9083H1.2879V14.4833C2.92957 17.75 6.30457 20 10.2129 20Z" fill="#34A853"/>
<path d="M4.60456 11.9083C4.39622 11.3083 4.28789 10.6667 4.28789 9.99999C4.28789 9.33333 4.40456 8.69166 4.60456 8.09166V5.51666H1.28789C0.604556 6.86666 0.212891 8.38333 0.212891 9.99999C0.212891 11.6167 0.604556 13.1333 1.28789 14.4833L4.60456 11.9083Z" fill="#FBBC05"/>
<path d="M10.2129 3.95833C11.6879 3.95833 13.0046 4.46667 14.0462 5.45834L16.8962 2.60833C15.1712 0.991667 12.9129 0 10.2129 0C6.30457 0 2.92957 2.25 1.2879 5.51667L4.60457 8.09167C5.39624 5.71667 7.60457 3.95833 10.2129 3.95833Z" fill="#EA4335"/>
</g>
<defs>
<clipPath id="clip0_1_1110">
<rect width="20" height="20" fill="white"/>
</clipPath>
</defs>
</svg>
